<mxfile host="app.diagrams.net" modified="2023-05-02T07:21:19.079Z" agent="Mozilla/5.0 (Windows NT 10.0; Win64; x64) AppleWebKit/537.36 (KHTML, like Gecko) Chrome/112.0.0.0 Safari/537.36" version="21.2.3" etag="m8oAsO69gQo-FnDzjxy2" type="github">
  <diagram name="Page-1" id="EdxhPCqzhMMPx1qlKIne">
    <mxGraphModel>
      <root>
        <mxCell id="0" />
        <mxCell id="1" parent="0" />
      </root>
    </mxGraphModel>
  </diagram>
</mxfile>
